<?xml version="1.0" encoding="UTF-8" standalone="no"?>
<!-- Generator: Adobe Illustrator 23.0.3, SVG Export Plug-In . SVG Version: 6.00 Build 0)  -->
<svg xmlns:dc="http://purl.org/dc/elements/1.1/" xmlns:cc="http://creativecommons.org/ns#" xmlns:rdf="http://www.w3.org/1999/02/22-rdf-syntax-ns#" xmlns:svg="http://www.w3.org/2000/svg" xmlns="http://www.w3.org/2000/svg" xmlns:xlink="http://www.w3.org/1999/xlink" xmlns:sodipodi="http://sodipodi.sourceforge.net/DTD/sodipodi-0.dtd" xmlns:inkscape="http://www.inkscape.org/namespaces/inkscape" version="1.1" x="0px" y="0px" viewBox="0 0 1416.3 473.7" style="enable-background:new 0 0 1416.3 473.7;" xml:space="preserve" id="svg5881" sodipodi:docname="letsroles_V4 copie-01.svg" inkscape:version="0.92.4 (33fec40, 2019-01-16)"><metadata id="metadata5887"><rdf:RDF><cc:Work rdf:about=""><dc:format>image/svg+xml</dc:format><dc:type rdf:resource="http://purl.org/dc/dcmitype/StillImage"/><dc:title/></cc:Work></rdf:RDF></metadata><defs id="defs5885"/><sodipodi:namedview pagecolor="#ffffff" bordercolor="#666666" borderopacity="1" objecttolerance="10" gridtolerance="10" guidetolerance="10" inkscape:pageopacity="0" inkscape:pageshadow="2" inkscape:window-width="1834" inkscape:window-height="1016" id="namedview5883" showgrid="false" inkscape:zoom="1.042152" inkscape:cx="705.13795" inkscape:cy="269.24336" inkscape:window-x="86" inkscape:window-y="27" inkscape:window-maximized="1" inkscape:current-layer="g5878"/>
<style type="text/css" id="style5667">
	.st0{fill:#FFFFFF;}
	.st1{display:none;fill:#FFFFFF;}
	.st2{fill:none;stroke:#FFFFFF;stroke-width:7;stroke-linecap:round;stroke-linejoin:round;}
	.st3{fill:none;stroke:#FFFFFF;stroke-width:6.0128;stroke-linecap:round;stroke-linejoin:round;}
	.st4{fill:#FFFFFF;stroke:#FFFFFF;stroke-width:7;stroke-linecap:round;stroke-linejoin:round;}
	.st5{fill:#575757;stroke:#FFFFFF;stroke-width:7;stroke-linecap:round;stroke-linejoin:round;stroke-miterlimit:10;}
	.st6{clip-path:url(#SVGID_2_);fill:none;stroke:#FFFFFF;stroke-width:7;stroke-linecap:round;stroke-linejoin:round;}
	.st7{fill:#F15A24;}
	.st8{fill:#FCFCFC;}
	.st9{fill:#F8F9FA;}
	.st10{fill:#F5F6F7;}
	.st11{fill:#F2F4F4;}
	.st12{fill:#EEF1F2;}
	.st13{fill:#EBEEEF;}
	.st14{fill:#E8EBEC;}
	.st15{fill:#E4E8EA;}
	.st16{fill:#E1E5E7;}
	.st17{fill:#DEE3E4;}
	.st18{fill:#DAE0E2;}
	.st19{fill:#D7DDDF;}
	.st20{fill:#D4DADD;}
	.st21{fill:#D0D7DA;}
	.st22{fill:#CDD4D7;}
	.st23{fill:#C9D1D5;}
	.st24{fill:#C6CFD2;}
	.st25{fill:#C3CCCF;}
	.st26{fill:#BFC9CD;}
	.st27{fill:#BCC6CA;}
	.st28{fill:#B9C3C7;}
	.st29{fill:#B5C0C5;}
	.st30{fill:#B2BEC2;}
	.st31{fill:#AFBBBF;}
	.st32{fill:#ABB8BD;}
	.st33{fill:#A8B5BA;}
	.st34{fill:#F3FCF3;}
	.st35{fill:url(#SVGID_3_);}
	.st36{fill:url(#SVGID_4_);}
	.st37{fill:url(#SVGID_5_);}
	.st38{fill:#F9F9F9;}
	.st39{fill:#F6F6F6;}
	.st40{fill:#F3F3F3;}
	.st41{fill:#F0F0F0;}
	.st42{fill:#EDEDED;}
	.st43{fill:#EAEAEA;}
	.st44{fill:#E7E7E7;}
	.st45{fill:#E4E4E4;}
	.st46{fill:#E1E1E1;}
	.st47{fill:#DEDEDE;}
	.st48{fill:#DBDBDB;}
	.st49{fill:#D8D8D8;}
	.st50{fill:#D5D5D5;}
	.st51{fill:#D2D2D2;}
	.st52{fill:#CFCFCF;}
	.st53{fill:#CCCCCC;}
	.st54{fill:#C9C9C9;}
	.st55{fill:#C6C6C6;}
	.st56{fill:#C3C3C3;}
	.st57{fill:#C1C1C1;}
	.st58{fill:#BEBEBE;}
	.st59{fill:#BBBBBB;}
	.st60{fill:#B8B8B8;}
	.st61{fill:#B5B5B5;}
	.st62{fill:#B2B2B2;}
	.st63{fill:#F8F8F8;}
	.st64{fill:url(#SVGID_6_);}
	.st65{fill:url(#SVGID_7_);}
	.st66{fill:url(#SVGID_8_);}
	.st67{fill:url(#SVGID_9_);}
	.st68{fill:url(#SVGID_10_);}
	.st69{fill:url(#SVGID_11_);}
	.st70{fill:url(#SVGID_12_);}
	.st71{fill:url(#SVGID_13_);}
	.st72{fill:url(#SVGID_14_);}
	.st73{fill:url(#SVGID_15_);}
	.st74{fill:url(#SVGID_16_);}
	.st75{fill:url(#SVGID_17_);}
	.st76{fill:url(#SVGID_18_);}
	.st77{fill:url(#SVGID_19_);}
	.st78{fill:url(#SVGID_20_);}
	.st79{fill:url(#SVGID_21_);}
	.st80{fill:url(#SVGID_22_);}
	.st81{fill:url(#SVGID_23_);}
	.st82{fill:url(#SVGID_24_);}
	.st83{fill:none;stroke:#CCCCCC;stroke-width:4;stroke-miterlimit:10;}
	.st84{fill:url(#SVGID_25_);}
	.st85{fill:url(#SVGID_26_);}
	.st86{fill:url(#SVGID_29_);}
	.st87{fill:url(#SVGID_32_);}
</style>
<symbol id="ktuli" viewBox="-135.5 -90.9 271 193.9">
	<g id="g5675">
		<path class="st0" d="M-35.4-53.8c0,1.7,1.3,3.3,3.3,4.8c-2.8,1.5-5.4,3.4-7.5,5.6c-2.9-2.6-4.9-5.5-4.9-8.9c0-6.2,4-11,12.9-14.5    c11-4.3,10.6-10.2,9.2-14c-1.7-4.6-5.1-6-8.8-6c-3.4,0-6.8,2.8-6.8,5.5c0,4.2,3.3,5.5,7.8,3.3c3.1-1.5,6.3,4.6-2.5,5.4    c-5.4,0.5-9.3-2.9-9.3-8.2c0-4.7,3.5-10.2,10.9-10.2c7.3,0,14.4,5.3,14.4,13.7C-16.7-60.3-35.4-60.3-35.4-53.8z" id="path5669"/>
		<path class="st0" d="M2.1-58.1c2.7-1.6,4.5-3.6,4.5-6.2C6.6-69.2,2.1-71-1-71c-3.1,0-7.7,1.7-7.7,6.7C-8.7-56.5,7.8-54,14.7-52    c2.5,0.7,6.3,1.8,10.2,3.4c-1.1,0.7-2.3,1.3-3.4,2c-1.5,0.8-3,1.7-4.7,2.7c-2.3-0.9-4.7-1.7-6.8-2.3c-9.3-2.8-24.8-5.6-24.8-16.4    c0-9.6,9.4-11.9,13.8-11.9c4.4,0,13.8,2.2,13.8,11.9c0,2.7-1,4.9-2.6,6.8C7.7-56.4,4.8-57.2,2.1-58.1z" id="path5671"/>
		<path class="st0" d="M21.9-2C30-10.9,40-17.2,40-31.1c0-3.3-1.1-6.1-2.8-8.5c-2.6,2-5.5,3.8-8.3,5.5c0.3,0.7,0.5,1.5,0.6,2.3    c1.3,10.6-10,19.6-17.3,23.3c-1.6-7.2,0.1-16.3,6.2-21.6c7.6-6.6,24.1-12.3,24.1-22c0-6.2-4-11-12.9-14.5    c-11-4.3-10.6-10.2-9.2-14c1.7-4.6,5.1-6,8.8-6c3.4,0,6.8,2.8,6.8,5.5c0,4.2-3.3,5.5-7.8,3.3c-3.1-1.5-6.3,4.6,2.5,5.4    c5.4,0.5,9.3-2.9,9.3-8.2c0-4.7-3.5-10.2-10.9-10.2c-7.3,0-14.4,5.3-14.4,13.7c0,16.9,18.7,16.9,18.7,23.4    c0,8.7-32.2,13-34.3,37.1C-1-16.1-1-15.4-1-14.8c0-0.6,0-1.3-0.1-1.9C-2.2-28.8-10.7-35.9-19-41c-3.6,1.5-6.7,3.4-8.5,5.9    c2.6,1.6,5.1,3.2,7,4.9c6.1,5.3,7.8,14.4,6.2,21.6c-7.3-3.7-18.6-12.7-17.3-23.3c1-8.3,12-12.1,19.5-14.3c2.1-0.6,4.6-1.3,7.1-2    c-3-1.2-5.9-2.8-8.1-4.8c-1.4,0.3-2.6,0.6-3.7,0.9C-24-50-42-44.9-42-31.1c0,14,9.5,20.8,18.1,29.1c1.8,1.7,3.2,3.3,4.2,4.7" id="path5673"/>
	</g>
	<path class="st0" d="M134.1,97.6c-20.9,7.2-63.8,8.9-80.4-5.5c-2.1-1.8-1.9-5.1,0.4-6.8c2.4-1.9,3.9-4.9,3.7-8.2   c-0.3-4.4-3.7-8.1-8-8.8c0.7-4.8-0.5-10.2-1.5-15.6c-0.1,5.6-0.7,10.8-2,15.7c-0.1,0-0.2,0-0.3,0.1c-6.3,22.7-24.7,34-46.4,34   c-21.8,0-40.2-11.4-46.5-34.2c0,0,0,0,0,0c-1.4-5.1-2.1-10.7-2.2-16.7c-1.1,5.9-2.5,11.8-1.3,16.9c-4,1-7,4.5-7.3,8.6   c-0.2,3.3,1.3,6.3,3.7,8.2c2.2,1.7,2.5,5,0.4,6.8c-16.6,14.4-59.4,12.7-80.4,5.5c-2.2-0.8-1.7-4.1,0.7-4.1   c18.9,0,36.8-2.6,36.9-37.3c0-3,2.8-5.1,5.7-4.3c23.7,6.3,36.1-2.1,42.6-11.5C-43.2,17.3-22.6-9-10.1-18c5.9-4.3,13.4-4.3,19.3,0   c9.5,6.9,23.7,23.7,32.1,41.6l0.1,0.2c2.2,4.8,4.1,9.6,5.3,14.4c6,10.2,18.5,20.5,44.1,13.7c2.9-0.8,5.7,1.4,5.7,4.3   c0.1,34.6,18,37.2,36.9,37.3C135.8,93.5,136.3,96.8,134.1,97.6z M-13.6,17.9c-6.9,1.7-16.9,6.7-20.8,21.2c-1,3.6,2.3,6.9,5.9,5.9   c7-1.9,17.1-7,20.7-21.3C-6.8,20.3-10.1,17.1-13.6,17.9z M34.1,41.5c-4-17.2-16-22.1-23.1-23.5c-2.8-0.5-5.2,2-4.7,4.8   c3.5,16.8,15.8,22,23.1,23.5C32.2,47,34.7,44.4,34.1,41.5z" id="path5677"/>
	<path class="st0" d="M-21.4,2.3C-23.5,3.8-26,5.3-29,6.5c-7,2.9-26.6,7.3-34.2-6.4c-5.7-10.3,2.6-17.5,6.6-21.4   c7.1-6.8,6-11.5,4.4-14.7c-1.6-3.2-5.8-7.2-12.7-3.9c-2.3,1.1-4.5,4.2-3.1,7.6c1.5,3.5,6.8,4.2,7.6-1c0.2-1.6,2.2-2.4,3.6-1.2   c1.5,1.2,1.6,5.4-3.3,8.1c-3.2,1.8-9.3,2.1-12.1-4.4c-2.4-5.8,1.6-11.4,6-13.3c6.8-2.8,15.3-1.2,18.7,6.9   c3.3,7.8,1.5,12.3-3.7,17.9c-6.1,6.5-10.6,12.5-5.7,17.4c5.6,5.7,19.4,2.7,25.4-0.3c4.5-2.3,7.7-5.3,10.1-9.7" id="path5679"/>
	<path class="st0" d="M20.2-11.8c2.4,4.4,5.6,7.3,10.1,9.7c5.9,3.1,19.8,6,25.4,0.3c4.9-4.9,0.4-11-5.7-17.4   c-5.3-5.6-7-10.1-3.7-17.9c3.4-8.1,11.9-9.8,18.7-6.9c4.4,1.8,8.4,7.5,6,13.3c-2.8,6.6-8.9,6.2-12.1,4.4c-5-2.7-4.9-6.9-3.3-8.1   c1.4-1.1,3.4-0.3,3.6,1.2c0.8,5.2,6.2,4.5,7.6,1c1.5-3.5-0.8-6.5-3.1-7.6c-6.9-3.3-11,0.7-12.7,3.9c-1.6,3.2-2.7,8,4.4,14.7   c4.1,3.9,12.4,11.1,6.6,21.4c-7.6,13.7-27.2,9.3-34.2,6.4c-3-1.3-5.5-2.7-7.6-4.2" id="path5681"/>
</symbol>
<symbol id="mage" viewBox="-102.2 -131.5 204.5 263.1">
	<path class="st0" d="M-63.8,72.6c3.5,0,6.4,2.9,6.4,6.4c0,3.5-2.9,6.4-6.4,6.4s-6.4-2.9-6.4-6.4C-70.2,75.5-67.3,72.6-63.8,72.6z" id="path5684"/>
	<path class="st0" d="M-52.3,99.5c2.3,0,4.1,1.8,4.1,4.1s-1.8,4.1-4.1,4.1s-4.1-1.8-4.1-4.1S-54.5,99.5-52.3,99.5z" id="path5686"/>
	<path class="st0" d="M-78.2,115.8l4.8,1.3c2.5,0.7,2.5,4.2,0,4.9l-4.8,1.3c-0.9,0.2-1.5,0.9-1.8,1.7l-1.4,4.6   c-0.7,2.4-4.3,2.4-5.1,0l-1.4-4.6c-0.3-0.8-0.9-1.5-1.8-1.7l-4.8-1.3c-2.5-0.7-2.5-4.2,0-4.9l4.8-1.3c0.9-0.2,1.5-0.9,1.8-1.7   l1.4-4.6c0.7-2.4,4.3-2.4,5.1,0l1.4,4.6C-79.7,114.9-79.1,115.6-78.2,115.8z" id="path5688"/>
	<path class="st0" d="M101.6,42.3L79.3,77.2c-0.9,1.4-2.6,2.1-4.2,1.8L56.2,75l3.4,15.3c0.4,1.6-0.3,3.3-1.8,4.3l-43.8,27.9   c-1.1,0.7-2.5,0.8-3.7,0.3l-26.6-11.4c-0.8-0.4-1.5-1-1.9-1.8L-44,62.4l-55.8-24.3c-0.1,0-0.1-0.1-0.2-0.1   c-0.1-0.1-0.3-0.1-0.4-0.2c-0.1-0.1-0.2-0.1-0.3-0.2c-0.1-0.1-0.2-0.2-0.3-0.3c-0.1-0.1-0.2-0.2-0.3-0.3c-0.1-0.1-0.2-0.2-0.2-0.3   c-0.1-0.1-0.1-0.2-0.2-0.3c-0.1-0.1-0.1-0.2-0.2-0.3c0-0.1-0.1-0.2-0.1-0.3c0-0.1-0.1-0.3-0.1-0.4c0-0.1,0-0.3-0.1-0.4   c0-0.1,0-0.2,0-0.4c0-0.1,0-0.3,0-0.4c0-0.1,0-0.2,0-0.2c0,0,0-0.1,0-0.1c0-0.1,0.1-0.3,0.1-0.4c0-0.1,0.1-0.3,0.1-0.4   c0,0,0-0.1,0-0.1c0-0.1,0.1-0.1,0.1-0.2c0.1-0.1,0.1-0.3,0.2-0.4c0.1-0.1,0.1-0.2,0.2-0.3c0.1-0.1,0.2-0.2,0.3-0.3   c0.1-0.1,0.2-0.2,0.3-0.3c0.1-0.1,0.2-0.2,0.3-0.2c0.1-0.1,0.2-0.1,0.3-0.2c0.1-0.1,0.2-0.1,0.3-0.2c0.1-0.1,0.2-0.1,0.4-0.1   c0.1,0,0.2-0.1,0.4-0.1c0.1,0,0.3,0,0.4-0.1c0.1,0,0.2,0,0.4,0c0.1,0,0.3,0,0.4,0c0.1,0,0.2,0,0.2,0l8.9,1.3l42.9-8.8   c-11.8-12.3-17.7-27.7-18-28.4c-0.5-1.3-0.3-2.8,0.6-3.9c0.9-1.1,2.3-1.7,3.7-1.5l3.6,0.5c-4.9-15.8-4.9-36.2,0.3-57   c5.7-23.1,17-43.4,30.2-54.2c8.2-6.7,16.5-10.1,24.8-10.1c1.1,0,2.2,0.1,3.3,0.2c13.7,1.5,22.1,11.8,22.4,12.2   c1.2,1.6,1.1,3.8-0.2,5.2c-1.4,1.4-3.6,1.7-5.2,0.5c-4.5-3.1-10.8-4.5-15.1,1.3c-3.7,4.9-3.8,12.9,3.2,18.7   C26.6-78,48.8-49.8,48.8-21c0,4.1-1,10.7-1.9,16.1c0.7-0.5,1.3-0.9,1.7-1.2c1.4-1.1,3.3-1.1,4.8-0.1c1.4,1,2,2.9,1.5,4.5   C51.9,7.1,45.7,15,40.5,20.6l39.9,6.9l8.5-1.6c0,0,0,0,0.1,0c0.2,0,0.5-0.1,0.7-0.1c0,0,0,0,0,0c0,0,0,0,0,0c0,0,0,0,0,0   c0.2,0,0.4,0,0.6,0.1c0.1,0,0.1,0,0.2,0c0.1,0,0.3,0.1,0.4,0.1c0.1,0,0.1,0,0.2,0.1c0.1,0.1,0.3,0.1,0.4,0.2c0,0,0.1,0,0.1,0.1   c0.2,0.1,0.4,0.2,0.5,0.4c0,0,0.1,0.1,0.1,0.1c0.1,0.1,0.2,0.2,0.4,0.3c0,0.1,0.1,0.1,0.1,0.2c0.1,0.1,0.2,0.2,0.2,0.3   c0,0.1,0.1,0.1,0.1,0.2c0,0,0,0.1,0.1,0.1c0,0.1,0,0.1,0.1,0.2c0.1,0.1,0.1,0.3,0.2,0.4c0,0.1,0.1,0.2,0.1,0.3c0,0.1,0,0.1,0.1,0.2   c0,0.1,0,0.1,0,0.2c0,0.1,0,0.3,0,0.4c0,0.1,0,0.3,0,0.4c0,0.1,0,0.3,0,0.4c0,0.1,0,0.3-0.1,0.4c0,0.1-0.1,0.2-0.1,0.4   c0,0.1-0.1,0.2-0.2,0.4c-0.1,0.1-0.1,0.2-0.2,0.3c-0.1,0.1-0.1,0.2-0.2,0.3c-0.1,0.1-0.2,0.2-0.2,0.3c-0.1,0.1-0.2,0.2-0.3,0.3   c-0.1,0.1-0.2,0.2-0.3,0.2c-0.1,0.1-0.2,0.2-0.4,0.2c-0.1,0-0.1,0.1-0.2,0.1L55,52.6c-3.5,2.3-22.6,20.6-22.6,20.6   c-0.7,0.9-0.9,2.1-0.7,3.2l1.8,8.6l-17.8,8.3c-2.1,0.8,22-3,22-3c1.8-0.7,3.4-2.1,3-4l-0.8-9.8c0,0,15-19.4,16.5-22.6l16.7,5.9   l22.2-22.5c1.4-1.5,3.7-1.6,5.4-0.3C102.3,38.3,102.7,40.6,101.6,42.3z M5.9-13.6c-1.9-0.3-4.4-0.3-7.3,0.3c0,0-1.5,0.4-2.2,1.5   c-0.1,0.2-0.5,0.2-0.6,0c-0.7-1-2.2-1.4-2.2-1.4c-2.9-0.6-5.4-0.5-7.3-0.2c-3.1,0.5-4.1,4.5-1.6,6.4c3.6,2.8,9.8,2.7,11.2,2.7   c0.2,0,0.4,0,0.6,0c1.4,0,7.6,0,11.1-2.9C10-9.3,8.9-13.2,5.9-13.6z M33,21.4C31.1,9.6,32.1-7.6,23.9-6c-4.1,3.7-7.1,9.6-12.1,11.8   C9.1,7,6,6.9,3.3,5.8c-2.2-0.9-4.4-3-6.9-3c-2.5,0-4.7,2.2-6.8,3.1c-2.7,1.2-5.9,1.3-8.6,0.1c-5-2.1-8.2-7.9-12.3-11.5   C-39.6-6.9-38.3,10.3-40,22c10.8-1.3,22.8-2.1,36.2-2.3C9.9,19.6,22.1,20.2,33,21.4z" id="path5690"/>
	<polygon class="st1" points="-4,28.1 -4.5,1 -14.9,5  " id="polygon5692"/>
</symbol>
<symbol id="vick" viewBox="-96.5 -110.7 192.3 220.8">
	<path class="st2" d="M-35.1-17.2c-0.3-25.6,14.9-39.5,43.8-56.7c1.3-0.8,2.7-1.2,4.2-1.3c0,0,0.1,0,0.1,0c1.9-0.1,3.9,0.4,5.6,1.3   c32.8,16.3,45.7,45.7,42.9,61.6" id="path5695"/>
	<path class="st3" d="M18.5-38.9c-1.8,0.4-2.6-0.7-3.9-0.7c-1.3,0-2.1,1.1-3.8,0.7c-3.6-0.9-5-3.3-6.9-5.4c0-3.2,4.9-5.8,10.9-5.8   c6,0,10.9,2.6,10.9,5.8C23.3-42,22.1-39.8,18.5-38.9z" id="path5697"/>
	<polyline class="st3" points="9.7,-24.1 14.2,-27.5 19.9,-24.1  " id="polyline5699"/>
	<path class="st0" d="M13-110.7c-0.7,0-1.3,0.2-1.9,0.6l-30.6,19.6c-1.3,0.9-1.9,2.5-1.5,4l7.9,25.1c0.6,1.8,2.5,2.9,4.4,2.3   c1.8-0.6,2.9-2.5,2.3-4.4l-7.1-22.6l26.3-16.9l25.8,20.1L37-68.3c-0.2,1.9,1.2,3.6,3.1,3.9c1.9,0.2,3.6-1.2,3.9-3.1l1.8-16.5   c0.1-1.2-11.1-9.7-12.1-10.4L15.2-110C14.6-110.5,13.8-110.7,13-110.7z" id="path5701"/>
	<line class="st2" x1="39" y1="-60.1" x2="42.6" y2="-78.4" id="line5703"/>
	<g id="g5709">
		<polygon class="st4" points="-72,54 -52.4,53.7 -52.7,40.5 -72.3,40.9   " id="polygon5705"/>
		<line class="st2" x1="-47.6" y1="47.4" x2="-31.8" y2="47" id="line5707"/>
	</g>
	<path class="st2" d="M-51.3-5.9v24.9c0,5.9,4.1,10.5,8.8,10.5h114c4.7,0,8.9-4.5,8.9-10.5V-5.9c0-5.9-4.2-10.5-8.9-10.5H34.2   c-1.1,0-2.2,0.6-3,1.9l-2.3,3.8c-3.2,5.3-8.5,8.3-14.3,8.3c0,0-0.1,0-0.1,0c-5.8,0-11.2-3.2-14.3-8.6l-2.1-3.5   c-0.8-1.3-1.9-1.9-3-1.9h-37.6C-47.2-16.4-51.3-11.8-51.3-5.9z" id="path5711"/>
	<g id="g5717">
		<line class="st5" x1="-32.1" y1="14.8" x2="-16.1" y2="-1.3" id="line5713"/>
		<line class="st5" x1="-16.1" y1="14.8" x2="-32.1" y2="-1.3" id="line5715"/>
	</g>
	<path class="st2" d="M-64.6,49.3h-2.7c-14.2,0-25.7-7-25.7-20.5v0C-93,15.2-81.5,6-67.3,6h11.5" id="path5719"/>
	<g id="g5729">
		<defs id="defs5722">
			<rect id="SVGID_1_" x="-47.6" y="30.2" width="45.8" height="67.7"/>
		</defs>
		<clipPath id="SVGID_2_">
			<use xlink:href="#SVGID_1_" style="overflow:visible;" id="use5724"/>
		</clipPath>
		<path class="st6" d="M-40.2,33.8c0,77.4,107.4,77.2,107,0.7" clip-path="url(#SVGID_2_)" id="path5727"/>
	</g>
	<path class="st0" d="M44.8,68c0,0,24.5,1.7,46.7-11.2c-1.4,4.2-3.2,8.3-5.2,12.2c-12.6,4.7-31.9,9.4-54.7,6.5   c0,0,21.1,10.3,45.7,7.4c-2.6,3.3-5.4,6.4-8.5,9.2c-13.4-0.1-32.6-2.5-52.3-12.8c0,0,15.8,16.4,39.4,22.5   c-5.6,3.3-11.5,5.7-17.7,7.1c-10.5-5.4-23.6-14.3-34.7-28.7c0,0,5.6,16.4,19.8,29.9c-20.4-1.4-36.5-16-36.5-30.6   c0-13.1,6.1-26.8,24-35.3C39,31,49.2-5.7,45.6-34.6c-2.1-17.2-15.2-47.3-31.4-75.9C87.2-68.5,98.8,7.9,95.4,39.3   C85.7,48.7,68.8,61.7,44.8,68z" id="path5731"/>
</symbol>
<g id="fond">
</g>
<g id="Calque_1">
	<g id="g5878">
		<g id="g5737">
			<path class="st7" d="M1389.1,352.7H27.2c-15,0-27.2-12.2-27.2-27.2V155.8c0-15,12.2-27.2,27.2-27.2h1362     c15,0,27.2,12.2,27.2,27.2v169.8C1416.3,340.6,1404.1,352.7,1389.1,352.7z" id="path5735"/>
		</g>
		<path class="st0" d="M78.5,289.4h44c2.4,0,3.6,1.3,3.6,3.6v22.2c0,2.4-1.1,3.6-3.6,3.6H51.8c-2.2,0-3.6-1.1-3.6-3.6V166.7    c0-2.2,1.3-3.6,3.6-3.6h23.1c2.4,0,3.6,1.3,3.6,3.6V289.4z" id="path5739"/>
		<path class="st0" d="M234.7,188.9c0,2.2-0.9,3.8-3.6,3.8h-54.9v34.2H218c2.2,0,3.6,1.3,3.6,3.8v22c0,2.4-1.3,3.8-3.6,3.8h-41.8    v32.9h54.9c2.7,0,3.6,1.1,3.6,3.6v22.2c0,2.2-0.9,3.6-3.6,3.6h-81.8c-2,0-3.3-1.3-3.3-3.6V166.7c0-2.2,1.3-3.6,3.3-3.6h81.8    c2.7,0,3.6,1.3,3.6,3.6V188.9z" id="path5741"/>
		<path class="st0" d="M333.4,163.1c2.4,0,3.6,1.3,3.6,3.6v22.2c0,2.2-1.1,3.6-3.6,3.6h-25.8v122.7c0,2.4-1.1,3.6-3.6,3.6h-23.1    c-2.2,0-3.6-1.1-3.6-3.6V192.5h-25.8c-2.2,0-3.6-1.3-3.6-3.6v-22.2c0-2.2,1.3-3.6,3.6-3.6H333.4z" id="path5743"/>
		<g id="g5753">
			<path class="st0" d="M1044.1,239.8c0,12.9-4.2,22-12.4,27.1l11.6,47.8c0.7,2.7-0.7,4-3.1,4h-21.8c-2.2,0-3.3-1.1-3.8-3.1     l-10.7-43.8h-19.8v43.3c0,2.2-1.3,3.6-3.6,3.6h-21.8c-2.2,0-3.6-1.3-3.6-3.6V166.7c0-2.2,1.3-3.6,3.6-3.6h53.3     c20.9,0,32,11.1,32,32V239.8z M1006.3,243.2c5.8,0,8.9-3.1,8.9-8.9v-33.6c0-5.8-3.1-8.9-8.9-8.9h-22.2v51.3H1006.3z" id="path5745"/>
			<path class="st0" d="M1066.3,195.1c0-20.9,11.1-32,32-32h24.9c20.9,0,32,11.1,32,32v91.6c0,20.9-11.1,32-32,32h-24.9     c-20.9,0-32-11.1-32-32V195.1z M1118.3,290c5.8,0,8.9-2.9,8.9-8.9v-80.5c0-5.8-3.1-8.9-8.9-8.9h-14.2c-5.8,0-8.9,3.1-8.9,8.9     v80.5c0,6,3.1,8.9,8.9,8.9H1118.3z" id="path5747"/>
			<path class="st0" d="M1207.7,289.4h44c2.4,0,3.6,1.3,3.6,3.6v22.2c0,2.4-1.1,3.6-3.6,3.6H1181c-2.2,0-3.6-1.1-3.6-3.6V166.7     c0-2.2,1.3-3.6,3.6-3.6h23.1c2.4,0,3.6,1.3,3.6,3.6V289.4z" id="path5749"/>
			<path class="st0" d="M1363.9,188.9c0,2.2-0.9,3.8-3.6,3.8h-54.9v34.2h41.8c2.2,0,3.6,1.3,3.6,3.8v22c0,2.4-1.3,3.8-3.6,3.8h-41.8     v32.9h54.9c2.7,0,3.6,1.1,3.6,3.6v22.2c0,2.2-0.9,3.6-3.6,3.6h-81.8c-2,0-3.3-1.3-3.3-3.6V166.7c0-2.2,1.3-3.6,3.3-3.6h81.8     c2.7,0,3.6,1.3,3.6,3.6V188.9z" id="path5751"/>
		</g>
		
		<g id="g5813">
			<path class="st34" d="M885.3,93.8L736.5,7c-7.7-4.5-18-7-29-7c-11,0-21.3,2.4-29,6.8L529,92.3c-24.2,14-29.1,37.1-29.2,50.1     l-0.7,172.2c-0.1,18.5,12.8,41,28.8,50.3l148.8,86.7c15.7,9,41.3,9,58,0.2l149.5-85.5c16-9.2,29.1-31.6,29.2-50.1l0.7-172.2     C914.1,127.5,905.5,105.3,885.3,93.8z" id="path5811"/>
		</g>
		<g id="g5860">
			<radialGradient id="SVGID_3_" cx="730.0169" cy="206.2334" r="296.4445" gradientUnits="userSpaceOnUse">
				<stop offset="0" style="stop-color:#F7931E" id="stop5815"/>
				<stop offset="0.3033" style="stop-color:#F7901E" id="stop5817"/>
				<stop offset="0.4874" style="stop-color:#F6881F" id="stop5819"/>
				<stop offset="0.6396" style="stop-color:#F47A21" id="stop5821"/>
				<stop offset="0.7737" style="stop-color:#F26523" id="stop5823"/>
				<stop offset="0.8322" style="stop-color:#F15A24" id="stop5825"/>
			</radialGradient>
			<path class="st35" d="M721.4,451c-7.6,0-12.1-6.3-12.1-16.6l0.7-172.2c0.1-16.6,12.3-37.6,26.7-45.9l149.5-85.5     c3.8-2.2,7.5-3.3,10.8-3.3c7.6,0,12.1,6.3,12.1,16.6l-0.7,172.2c-0.1,16.6-12.3,37.6-26.7,45.9l-149.5,85.5     C728.4,449.9,724.7,451,721.4,451L721.4,451z" id="path5828"/>
			<radialGradient id="SVGID_4_" cx="730.0169" cy="206.2334" r="296.4445" gradientUnits="userSpaceOnUse">
				<stop offset="0" style="stop-color:#F7931E" id="stop5830"/>
				<stop offset="0.3033" style="stop-color:#F7901E" id="stop5832"/>
				<stop offset="0.4874" style="stop-color:#F6881F" id="stop5834"/>
				<stop offset="0.6396" style="stop-color:#F47A21" id="stop5836"/>
				<stop offset="0.7737" style="stop-color:#F26523" id="stop5838"/>
				<stop offset="0.8322" style="stop-color:#F15A24" id="stop5840"/>
			</radialGradient>
			<path class="st36" d="M689.9,450.9c-3.3,0-7-1.2-10.8-3.4l-148.8-86.7c-14.4-8.4-26.4-29.5-26.4-46.1l0.7-172.2     c0-10.4,4.6-16.6,12.2-16.5c3.3,0,7,1.2,10.8,3.4L676.4,216c14.4,8.4,26.4,29.5,26.4,46.1l-0.7,172.2c0,5.3-1.3,9.7-3.6,12.6     C696.3,449.6,693.4,450.9,689.9,450.9L689.9,450.9z" id="path5843"/>
			<radialGradient id="SVGID_5_" cx="730.0169" cy="206.2334" r="296.4445" gradientUnits="userSpaceOnUse">
				<stop offset="0" style="stop-color:#F7931E" id="stop5845"/>
				<stop offset="0.3033" style="stop-color:#F7901E" id="stop5847"/>
				<stop offset="0.4874" style="stop-color:#F6881F" id="stop5849"/>
				<stop offset="0.6396" style="stop-color:#F47A21" id="stop5851"/>
				<stop offset="0.7737" style="stop-color:#F26523" id="stop5853"/>
				<stop offset="0.8322" style="stop-color:#F15A24" id="stop5855"/>
			</radialGradient>
			<path class="st37" d="M706.6,216.1c-10.1,0-19.5-2.3-26.5-6.4L531.3,123c-6.4-3.7-9.8-8.4-9.8-13.3c0-4.9,3.5-9.5,9.9-13.2     L680.9,11c7-4,16.5-6.2,26.6-6.2c10.1,0,19.5,2.3,26.5,6.4L882.8,98c6.4,3.7,9.9,8.4,9.8,13.3c0,4.9-3.5,9.5-9.9,13.2     l-149.5,85.5C726.2,213.9,716.7,216.1,706.6,216.1z" id="path5858"/>
		</g>
		<g id="g5866">
			<path class="st0" d="M374.3,187.3h-1.2c-0.2,1.2-0.3,2.4-0.4,3.7L374.3,187.3z" id="path5862"/>
			<path class="st0" d="M435.4,213.4h22.4c2.4,0,3.6-1.3,3.6-3.6v-14.7c0-20.9-11.1-32-32-32h-24.9c-4,0-7.7,0.4-11,1.3v19.8     c0,2.2-0.4,3.8-1.6,5.6l-12,18.2c-0.7,1.1-1.3,1.6-2.7,1.6h-4.7v24c0,4.2,2,6.9,6,8.2l53.3,17.3v22.4c0,6-3.1,8.9-8.9,8.9h-12     c-5.6,0-8.9-2.9-8.9-8.9v-9.3c0-2.4-1.1-3.6-3.6-3.6H376c-2.2,0-3.6,1.1-3.6,3.6v14.4c0,20.9,11.3,32,32,32h24.9     c20.9,0,32-11.1,32-32v-41.8c0-4.2-2-6.9-5.8-8.2l-53.8-17.3v-18.9c0-5.8,3.3-8.9,8.9-8.9h12.2c6,0,8.9,3.1,8.9,8.9v9.3     C431.8,212,433.2,213.4,435.4,213.4z" id="path5864"/>
		</g>
		<g id="g5870">
			<path class="st0" d="M355.8,158.8c0-2.9,1.6-4.4,4.4-4.4h20.2c2.9,0,4.4,1.6,4.4,4.4v21.8c0,2.2-0.4,3.8-1.6,5.6l-12,18.2     c-0.7,1.1-1.3,1.6-2.7,1.6h-10c-1.8,0-2.4-1.1-1.8-2.7l8.9-19.6h-5.6c-2.9,0-4.4-1.6-4.4-4.4V158.8z" id="path5868"/>
		</g>
		
			<use xlink:href="#vick" width="192.3" height="220.8" x="-96.5" y="-110.7" transform="matrix(0.7268 -0.4196 0 -0.834 808.5231 292.9169)" style="overflow:visible;" id="use5872"/>
		
			<use xlink:href="#ktuli" width="271" height="193.9" x="-135.5" y="-90.9" transform="matrix(0.6484 0.3744 0.6443 -0.372 691.5621 116.5916)" style="overflow:visible;" id="use5874"/>
		
			<use xlink:href="#mage" width="204.5" height="263.1" x="-102.2" y="-131.5" transform="matrix(0.6568 0.3792 0 -0.7537 602.4357 285.8305)" style="overflow:visible;" id="use5876"/>
	</g>
</g>
</svg>